<svg width="18" height="23" viewBox="0 0 18 23" fill="none" xmlns="http://www.w3.org/2000/svg">
<path d="M17.3202 16.9828C16.8382 16.5383 16.5618 15.908 16.5618 15.2536V10.7812C16.5618 10.5332 16.3625 10.332 16.1166 10.332C15.8707 10.332 15.6714 10.5332 15.6714 10.7812V15.2536C15.6714 16.1596 16.0534 17.0316 16.7194 17.646C16.9588 17.8668 17.096 18.1809 17.096 18.5079C17.096 19.1519 16.5768 19.6758 15.9386 19.6758H2.04788C1.40967 19.6758 0.890421 19.1519 0.890421 18.5079C0.890421 18.181 1.02768 17.8668 1.26707 17.646C1.9331 17.0316 2.3151 16.1596 2.3151 15.2536V10.0625C2.3151 6.34698 5.31092 3.32418 8.99325 3.32418C10.006 3.32418 11.0036 3.55656 11.907 3.99855C11.593 4.50751 11.4109 5.10758 11.4109 5.74997C11.4109 7.58296 12.8888 9.07419 14.7054 9.07419C16.5221 9.07419 18 7.58296 18 5.74997C18 3.91697 16.5221 2.42574 14.7054 2.42574C13.8541 2.42574 13.077 2.75331 12.4917 3.29008C11.8281 2.94082 11.1162 2.69384 10.381 2.55588C10.545 2.29758 10.6405 1.99094 10.6405 1.66207C10.6405 0.745615 9.90157 0 8.99325 0C8.08494 0 7.34598 0.745615 7.34598 1.66207C7.34598 1.99058 7.44129 2.29686 7.60495 2.55503C4.09242 3.21471 1.42467 6.32995 1.42467 10.0625V15.2536C1.42467 15.908 1.14829 16.5383 0.666302 16.9828C0.242863 17.3734 0 17.9293 0 18.5079C0 19.6473 0.918692 20.5742 2.04788 20.5742H6.1789C6.39331 21.9468 7.57357 23 8.99325 23C10.4129 23 11.5932 21.9468 11.8076 20.5742H15.9386C17.0678 20.5742 17.9865 19.6473 17.9865 18.5079C17.9865 17.9293 17.7436 17.3734 17.3202 16.9828ZM14.7054 3.32418C16.0311 3.32418 17.1095 4.41242 17.1095 5.74997C17.1095 7.08752 16.0311 8.17575 14.7054 8.17575C13.3797 8.17575 12.3013 7.08752 12.3013 5.74997C12.3013 4.41242 13.3797 3.32418 14.7054 3.32418ZM8.99325 0.898394C9.41059 0.898394 9.75011 1.24097 9.75011 1.66202C9.75011 2.08312 9.41059 2.4257 8.99325 2.4257C8.57591 2.4257 8.2364 2.08312 8.2364 1.66202C8.2364 1.24097 8.57591 0.898394 8.99325 0.898394ZM8.99325 22.1016C8.06628 22.1016 7.28819 21.4483 7.08597 20.5742H10.9005C10.6983 21.4483 9.92023 22.1016 8.99325 22.1016Z" fill="#BBBBBB"/>
<path d="M4.0069 9.60391C3.76101 9.60391 3.56169 9.80507 3.56169 10.0531V10.0625C3.56169 10.3105 3.76101 10.5117 4.0069 10.5117C4.25279 10.5117 4.45211 10.3105 4.45211 10.0625V10.0531C4.45211 9.80507 4.25279 9.60391 4.0069 9.60391Z" fill="#BBBBBB"/>
<path d="M8.99325 4.582C6.80856 4.582 4.84523 5.89318 3.99149 7.92248C3.89541 8.15082 4.00102 8.41456 4.22732 8.5115C4.28408 8.5358 4.34307 8.54735 4.40108 8.54735C4.57436 8.54735 4.73913 8.44461 4.81112 8.27355C5.52497 6.5768 7.16656 5.48043 8.99325 5.48043C9.23914 5.48043 9.43847 5.27927 9.43847 5.03122C9.43847 4.78316 9.23914 4.582 8.99325 4.582Z" fill="#BBBBBB"/>
<path d="M14.8623 4.29423C14.696 4.22487 14.5045 4.26314 14.3771 4.39162L13.8652 4.90822C13.6913 5.08364 13.6913 5.36809 13.8652 5.54355C13.9691 5.64835 14.1117 5.69067 14.2467 5.67005V6.48368C14.2467 6.73174 14.4461 6.9329 14.692 6.9329C14.9378 6.9329 15.1372 6.73174 15.1372 6.48368V4.70926C15.1372 4.52755 15.0287 4.36376 14.8623 4.29423Z" fill="#BBBBBB"/>
</svg>
