<svg width="31" height="18" viewBox="0 0 31 18" fill="none" xmlns="http://www.w3.org/2000/svg">
<path d="M11.1315 10.7764C11.7663 11.0986 12.3376 11.499 12.8454 11.9775C13.363 12.4463 13.8024 12.9736 14.1637 13.5596C14.5251 14.1357 14.8034 14.7607 14.9987 15.4346C15.194 16.0986 15.2917 16.7871 15.2917 17.5H13.4167C13.4167 16.7285 13.2653 16.001 12.9626 15.3174C12.6696 14.6338 12.2692 14.0381 11.7614 13.5303C11.2536 13.0225 10.6579 12.6221 9.9743 12.3291C9.2907 12.0264 8.56316 11.875 7.79168 11.875C7.02019 11.875 6.29265 12.0264 5.60906 12.3291C4.92547 12.6221 4.32976 13.0225 3.82195 13.5303C3.31414 14.0381 2.90887 14.6338 2.60613 15.3174C2.31316 16.001 2.16668 16.7285 2.16668 17.5H0.291678C0.291678 16.7871 0.389335 16.0986 0.584647 15.4346C0.77996 14.7607 1.05828 14.1357 1.41961 13.5596C1.78094 12.9736 2.21551 12.4463 2.72332 11.9775C3.2409 11.499 3.81707 11.0986 4.45183 10.7764C3.73894 10.249 3.17742 9.58496 2.76726 8.78418C2.36687 7.9834 2.16668 7.13867 2.16668 6.25C2.16668 5.47852 2.31316 4.75098 2.60613 4.06738C2.90887 3.38379 3.31414 2.78809 3.82195 2.28027C4.32976 1.77246 4.92547 1.37207 5.60906 1.0791C6.29265 0.776367 7.02019 0.625 7.79168 0.625C8.56316 0.625 9.2907 0.776367 9.9743 1.0791C10.6579 1.37207 11.2536 1.77246 11.7614 2.28027C12.2692 2.78809 12.6696 3.38379 12.9626 4.06738C13.2653 4.75098 13.4167 5.47852 13.4167 6.25C13.4167 7.13867 13.2116 7.9834 12.8014 8.78418C12.4011 9.58496 11.8444 10.249 11.1315 10.7764ZM4.04168 6.25C4.04168 6.76758 4.13933 7.25586 4.33465 7.71484C4.53973 8.16406 4.80828 8.55957 5.14031 8.90137C5.48211 9.2334 5.87762 9.50195 6.32683 9.70703C6.78582 9.90234 7.2741 10 7.79168 10C8.29949 10 8.78289 9.90234 9.24187 9.70703C9.70086 9.50195 10.0964 9.2334 10.4284 8.90137C10.7702 8.55957 11.0387 8.16406 11.2341 7.71484C11.4391 7.25586 11.5417 6.76758 11.5417 6.25C11.5417 5.74219 11.4391 5.25879 11.2341 4.7998C11.0387 4.34082 10.7702 3.94531 10.4284 3.61328C10.0964 3.27148 9.70086 3.00293 9.24187 2.80762C8.78289 2.60254 8.29949 2.5 7.79168 2.5C7.2741 2.5 6.78582 2.60254 6.32683 2.80762C5.87762 3.00293 5.48211 3.27148 5.14031 3.61328C4.80828 3.94531 4.53973 4.34082 4.33465 4.7998C4.13933 5.25879 4.04168 5.74219 4.04168 6.25ZM30.2917 0.625V2.5H17.1667V0.625H30.2917ZM17.1667 8.125H30.2917V10H17.1667V8.125ZM17.1667 15.625H30.2917V17.5H17.1667V15.625Z" fill="url(#paint0_linear)"/>
<defs>
<linearGradient id="paint0_linear" x1="5" y1="12.6613" x2="26.1834" y2="12.6613" gradientUnits="userSpaceOnUse">
<stop stop-color="#3CA4E6"/>
<stop offset="1" stop-color="#3C71DA"/>
</linearGradient>
</defs>
</svg>
