<svg width="16" height="20" viewBox="0 0 16 20" fill="none" xmlns="http://www.w3.org/2000/svg">
<path d="M15.7958 4.0885L8.1766 0.0454471C8.12503 0.016658 8.06629 0.000290799 8.0039 1.73611e-05C8.00342 -2.17014e-05 8.00346 1.73611e-05 8.00327 1.73611e-05C8.00279 1.73611e-05 8.00268 1.73611e-05 8.00245 1.73611e-05H7.99744C7.99717 1.73611e-05 7.9971 1.73611e-05 7.99662 1.73611e-05C7.99643 1.73611e-05 7.99651 1.73611e-05 7.99599 1.73611e-05C7.9336 0.000251736 7.87486 0.016658 7.82329 0.0454471L0.204187 4.0885C0.0789683 4.15494 0 4.28979 0 4.43717V11.7534C0 13.1794 0.408263 14.3847 1.2481 15.4383C2.02566 16.4137 3.07393 17.1255 3.99682 17.693C5.90005 18.8636 7.80202 19.9424 7.82098 19.9532C7.87523 19.9839 7.93587 20 7.99747 20H8.00249C8.0641 20 8.12474 19.9839 8.17898 19.9532C8.19798 19.9424 10.0999 18.8636 12.0031 17.693C12.1804 17.5841 12.2399 17.3448 12.1362 17.1586C12.0325 16.9724 11.8048 16.9098 11.6275 17.0188C10.0691 17.9774 8.51103 18.8743 7.99996 19.1664C7.48901 18.8743 5.93128 17.9776 4.37244 17.0189C2.6167 15.939 0.743581 14.5526 0.743581 11.7534V4.67752L7.99996 0.826932L15.2564 4.67752V11.7534C15.2564 13.1898 14.7978 14.3345 13.8132 15.3559C13.6671 15.5074 13.6656 15.7547 13.8098 15.9083C13.9541 16.0618 14.1895 16.0634 14.3356 15.9118C15.4556 14.7501 16 13.3899 16 11.7534V4.43721C16 4.28979 15.921 4.15498 15.7958 4.0885Z" fill="white" fill-opacity="0.75"/>
<path d="M14.5128 5.3985C14.5128 5.25112 14.4338 5.11627 14.3086 5.04983L8.16757 1.79111C8.0622 1.73518 7.93773 1.73518 7.83236 1.79111L1.69135 5.04979C1.56613 5.11623 1.48716 5.25108 1.48716 5.39846V11.7534C1.48716 12.786 1.77931 13.6585 2.38031 14.4209C2.88171 15.0569 3.58986 15.6323 4.74814 16.3446C5.90418 17.0557 7.0571 17.7312 7.82076 18.1727C7.87657 18.205 7.93828 18.2211 8 18.2211C8.06172 18.2211 8.12344 18.205 8.17924 18.1727C8.94282 17.7312 10.0957 17.0557 11.2519 16.3446C12.4101 15.6323 13.1183 15.0569 13.6197 14.4209C14.2207 13.6585 14.5128 12.786 14.5128 11.7534L14.5128 5.3985ZM13.7692 11.7534C13.7692 13.5504 12.7524 14.5164 10.8762 15.6704C9.81423 16.3236 8.75421 16.947 7.99996 17.3844C7.24567 16.947 6.18563 16.3235 5.12376 15.6705C3.24748 14.5165 2.23074 13.5505 2.23074 11.7535V5.63881L7.99996 2.57744L13.7692 5.63881V11.7534Z" fill="white" fill-opacity="0.75"/>
<path d="M10.0567 10.0735L9.44734 9.93351C9.31714 9.90358 9.21453 9.80202 9.17356 9.67296C9.72161 9.27854 10.082 8.61639 10.082 7.86729V6.42979C10.082 5.22362 9.14802 4.24229 7.99996 4.24229C6.85191 4.24229 5.91794 5.22362 5.91794 6.42979V7.86729C5.91794 8.61327 6.27541 9.27292 6.8196 9.66792C6.78008 9.79889 6.67639 9.90343 6.54414 9.9339L5.94181 10.0727C5.45205 10.1856 5.00928 10.4738 4.69504 10.8843C4.38081 11.2948 4.2077 11.8109 4.2077 12.3377V13.5157C4.2077 13.7314 4.37419 13.9063 4.57949 13.9063H11.4204C11.6257 13.9063 11.7922 13.7314 11.7922 13.5157V12.3388C11.7922 11.2572 11.0623 10.3045 10.0567 10.0735ZM6.66152 6.42979C6.66152 5.65436 7.26192 5.02354 7.99996 5.02354C8.57181 5.02354 9.06076 5.40237 9.25212 5.93362L9.22628 5.96077C8.73964 6.47206 8.09258 6.75366 7.40432 6.75366H6.66152V6.42979ZM6.66152 7.86729V7.53491H7.40432C8.10823 7.53491 8.77823 7.30557 9.33841 6.88186V7.86729C9.33841 8.64272 8.738 9.27354 7.99996 9.27354C7.26192 9.27354 6.66152 8.64272 6.66152 7.86729ZM8.77329 10.4135C8.3071 10.7478 7.6871 10.7466 7.22195 10.41C7.34137 10.2931 7.43633 10.1498 7.49838 9.99022C7.65911 10.0322 7.82704 10.0548 7.99996 10.0548C8.17013 10.0548 8.33539 10.0328 8.49381 9.9921C8.55657 10.1525 8.65257 10.2964 8.77329 10.4135ZM11.0486 13.125H4.95128V12.3376C4.95128 11.621 5.43487 10.9894 6.10112 10.8358L6.46852 10.7512C6.47919 10.7662 6.49061 10.7808 6.50358 10.7944C6.91616 11.2279 7.45808 11.4446 8 11.4446C8.54192 11.4446 9.08384 11.2279 9.49642 10.7944C9.50906 10.7812 9.52021 10.7669 9.53062 10.7523L9.89784 10.8367C10.5647 10.9899 11.0486 11.6216 11.0486 12.3388V13.125Z" fill="white" fill-opacity="0.75"/>
<path d="M13.2712 16.2821C13.2021 16.2094 13.1065 16.1676 13.0084 16.1676C12.9106 16.1676 12.815 16.2094 12.7455 16.2821C12.6763 16.3547 12.6369 16.4555 12.6369 16.5582C12.6369 16.661 12.6763 16.7618 12.7455 16.8344C12.815 16.9071 12.9106 16.9489 13.0084 16.9489C13.1065 16.9489 13.2021 16.9071 13.2712 16.8344C13.3407 16.7618 13.3805 16.661 13.3805 16.5582C13.3805 16.4555 13.3407 16.3547 13.2712 16.2821Z" fill="white" fill-opacity="0.75"/>
<path d="M3.60912 6.32385C3.54 6.2512 3.44408 6.2094 3.34589 6.2094C3.24811 6.2094 3.1526 6.2512 3.08307 6.32385C3.01392 6.39651 2.97451 6.49729 2.97451 6.60002C2.97451 6.70276 3.01392 6.80354 3.08307 6.8762C3.1526 6.94885 3.24811 6.99065 3.34589 6.99065C3.44404 6.99065 3.53959 6.94885 3.60912 6.8762C3.67831 6.80354 3.71809 6.70276 3.71809 6.60002C3.71809 6.49729 3.67827 6.39651 3.60912 6.32385Z" fill="white" fill-opacity="0.75"/>
<path d="M3.34608 7.5153C3.14077 7.5153 2.97429 7.69018 2.97429 7.90592V10C2.97429 10.2158 3.14077 10.3907 3.34608 10.3907C3.55142 10.3907 3.71787 10.2158 3.71787 10V7.90592C3.71787 7.69018 3.55138 7.5153 3.34608 7.5153Z" fill="white" fill-opacity="0.75"/>
</svg>
