<svg width="27" height="30" viewBox="0 0 27 30" fill="none" xmlns="http://www.w3.org/2000/svg">
<path d="M17.7741 17.6221C19.1022 18.0811 20.2985 18.7256 21.363 19.5557C22.4372 20.376 23.3454 21.3281 24.0876 22.4121C24.8395 23.4961 25.4157 24.6826 25.8161 25.9717C26.2165 27.2607 26.4167 28.6035 26.4167 30H24.5417C24.5417 28.3984 24.2536 26.9141 23.6774 25.5469C23.111 24.1699 22.3249 22.9785 21.319 21.9727C20.3132 20.9668 19.1218 20.1807 17.7448 19.6143C16.3776 19.0381 14.8932 18.75 13.2917 18.75C12.2468 18.75 11.2409 18.8818 10.2741 19.1455C9.3073 19.4092 8.40398 19.7852 7.56414 20.2734C6.73406 20.752 5.97723 21.333 5.29363 22.0166C4.6198 22.6904 4.03875 23.4473 3.55047 24.2871C3.07195 25.1172 2.70086 26.0156 2.43719 26.9824C2.17351 27.9492 2.04168 28.9551 2.04168 30H0.166678C0.166678 28.5938 0.371757 27.251 0.781913 25.9717C1.19207 24.6826 1.77312 23.501 2.52508 22.4268C3.27703 21.3525 4.18523 20.4053 5.24969 19.585C6.3239 18.7646 7.52019 18.1152 8.83855 17.6367C8.07683 17.2266 7.39324 16.7285 6.78777 16.1426C6.1823 15.5566 5.66473 14.9072 5.23504 14.1943C4.81512 13.4717 4.48797 12.7051 4.25359 11.8945C4.02898 11.0742 3.91668 10.2344 3.91668 9.375C3.91668 8.07617 4.16082 6.86035 4.6491 5.72754C5.13738 4.58496 5.80633 3.58887 6.65594 2.73926C7.50555 1.88965 8.49676 1.2207 9.62957 0.732422C10.7721 0.244141 11.9929 0 13.2917 0C14.5905 0 15.8063 0.244141 16.9391 0.732422C18.0817 1.2207 19.0778 1.88965 19.9274 2.73926C20.777 3.58887 21.446 4.58496 21.9343 5.72754C22.4225 6.86035 22.6667 8.07617 22.6667 9.375C22.6667 10.2344 22.5495 11.0693 22.3151 11.8799C22.0905 12.6904 21.7634 13.4521 21.3337 14.165C20.9137 14.8779 20.4011 15.5322 19.7956 16.1279C19.1999 16.7139 18.5261 17.2119 17.7741 17.6221ZM5.79168 9.375C5.79168 10.4102 5.98699 11.3818 6.37762 12.29C6.77801 13.1982 7.31512 13.9941 7.98894 14.6777C8.67254 15.3516 9.46844 15.8887 10.3766 16.2891C11.2848 16.6797 12.2565 16.875 13.2917 16.875C14.3268 16.875 15.2985 16.6797 16.2067 16.2891C17.1149 15.8887 17.9059 15.3516 18.5798 14.6777C19.2634 13.9941 19.8005 13.1982 20.1911 12.29C20.5915 11.3818 20.7917 10.4102 20.7917 9.375C20.7917 8.33984 20.5915 7.36816 20.1911 6.45996C19.8005 5.55176 19.2634 4.76074 18.5798 4.08691C17.9059 3.40332 17.1149 2.86621 16.2067 2.47559C15.2985 2.0752 14.3268 1.875 13.2917 1.875C12.2565 1.875 11.2848 2.0752 10.3766 2.47559C9.46844 2.86621 8.67254 3.40332 7.98894 4.08691C7.31512 4.76074 6.77801 5.55176 6.37762 6.45996C5.98699 7.36816 5.79168 8.33984 5.79168 9.375Z" fill="url(#paint0_linear)"/>
<defs>
<linearGradient id="paint0_linear" x1="3" y1="17.6613" x2="24.1834" y2="17.6613" gradientUnits="userSpaceOnUse">
<stop stop-color="#3CA4E6"/>
<stop offset="1" stop-color="#3C71DA"/>
</linearGradient>
</defs>
</svg>
