<svg width="16" height="14" viewBox="0 0 16 14" fill="none" xmlns="http://www.w3.org/2000/svg">
<path d="M4.41038 6.02374C4.12354 6.02374 3.85457 6.10365 3.62266 6.24242C3.39072 6.10362 3.12179 6.02374 2.83494 6.02374C1.9661 6.02374 1.25922 6.7532 1.25922 7.64976C1.25922 8.54635 1.9661 9.2758 2.83494 9.2758C3.12179 9.2758 3.39076 9.19589 3.62266 9.05713C3.8546 9.19592 4.12354 9.2758 4.41038 9.2758C5.27922 9.2758 5.98607 8.54635 5.98607 7.64976C5.9861 6.7532 5.27922 6.02374 4.41038 6.02374ZM3.12251 8.58485C3.03176 8.61465 2.93516 8.63084 2.83494 8.63084C2.31069 8.63084 1.88422 8.19075 1.88422 7.64976C1.88422 7.10879 2.31069 6.66871 2.83494 6.66871C2.93516 6.66871 3.03172 6.68489 3.12251 6.71469C2.94147 6.97942 2.83469 7.30186 2.83469 7.64976C2.83469 7.99768 2.94147 8.32013 3.12251 8.58485ZM3.62266 8.19849C3.51982 8.04176 3.45966 7.85289 3.45966 7.64976C3.45966 7.44663 3.51979 7.25775 3.62266 7.10102C3.72551 7.25775 3.78566 7.44663 3.78566 7.64976C3.78566 7.85289 3.72551 8.04176 3.62266 8.19849ZM4.41038 8.63084C4.31016 8.63084 4.2136 8.61465 4.12282 8.58485C4.30385 8.32013 4.41063 7.99768 4.41063 7.64976C4.41063 7.30186 4.30385 6.97938 4.12282 6.71469C4.2136 6.68489 4.31016 6.66871 4.41038 6.66871C4.9346 6.66871 5.36107 7.10879 5.36107 7.64976C5.3611 8.19075 4.9346 8.63084 4.41038 8.63084Z" fill="white" fill-opacity="0.75"/>
<path d="M14.7481 6.74239C14.7493 6.73094 14.75 6.71934 14.75 6.70756V1.32978C14.75 0.596557 14.1719 0 13.4614 0H8.67709C8.5045 0 8.36459 0.144375 8.36459 0.322481C8.36459 0.500587 8.5045 0.644961 8.67709 0.644961H13.4614C13.8273 0.644961 14.125 0.952156 14.125 1.32978V1.99938H0.625V1.32978C0.625 0.952156 0.922687 0.644961 1.28863 0.644961H6.0625C6.23509 0.644961 6.375 0.500587 6.375 0.322481C6.375 0.144375 6.23509 0 6.0625 0H1.28863C0.578094 0 0 0.596557 0 1.32978V9.50663C0 10.2399 0.578094 10.8364 1.28863 10.8364H8.14509C8.48488 12.0988 9.39731 13.1524 10.6247 13.6161C10.6601 13.6295 10.6964 13.6359 10.7321 13.6359C10.8595 13.6359 10.9792 13.5548 11.0256 13.4242C11.0849 13.2569 11.0016 13.0717 10.8396 13.0105C9.51497 12.51 8.625 11.1952 8.625 9.73891C8.625 7.81851 10.139 6.25612 12 6.25612C13.861 6.25612 15.375 7.81851 15.375 9.73891C15.375 11.1708 14.5429 12.4403 13.2552 12.973C13.095 13.0393 13.0172 13.227 13.0814 13.3923C13.1456 13.5577 13.3275 13.6379 13.4877 13.5717C14.2208 13.2684 14.8461 12.7521 15.2958 12.0786C15.7565 11.3887 16 10.5797 16 9.73891C16 8.56012 15.5186 7.49526 14.7481 6.74239ZM14.125 6.24339C13.5089 5.84312 12.7803 5.61116 12 5.61116C9.79438 5.61116 8 7.46285 8 9.73891C8 9.89129 8.00866 10.0422 8.02472 10.1914H1.28863C0.922719 10.1914 0.625 9.88422 0.625 9.50663V5.12744H14.125V6.24339ZM14.125 4.48248H0.625V2.64434H14.125V4.48248Z" fill="white" fill-opacity="0.75"/>
<path d="M12 9.44652C11.5971 9.44652 11.2694 9.15294 11.2694 8.79211C11.2694 8.43129 11.5971 8.1377 12 8.1377C12.4028 8.1377 12.7306 8.43129 12.7306 8.79211C12.7306 8.97022 12.8705 9.11459 13.0431 9.11459C13.2157 9.11459 13.3556 8.97022 13.3556 8.79211C13.3556 8.17872 12.9097 7.66362 12.3125 7.52796V7.21015C12.3125 7.03205 12.1726 6.88767 12 6.88767C11.8274 6.88767 11.6875 7.03205 11.6875 7.21015V7.52796C11.0902 7.66362 10.6444 8.17872 10.6444 8.79211C10.6444 9.5086 11.2525 10.0915 12 10.0915C12.4029 10.0915 12.7306 10.3851 12.7306 10.7459C12.7306 11.1068 12.4029 11.4003 12 11.4003C11.5971 11.4003 11.2694 11.1067 11.2694 10.7459C11.2694 10.5678 11.1295 10.4234 10.9569 10.4234C10.7843 10.4234 10.6444 10.5678 10.6444 10.7459C10.6444 11.3593 11.0902 11.8744 11.6875 12.0101V12.2677C11.6875 12.4458 11.8274 12.5902 12 12.5902C12.1726 12.5902 12.3125 12.4458 12.3125 12.2677V12.0101C12.9098 11.8744 13.3556 11.3593 13.3556 10.7459C13.3556 10.0294 12.7475 9.44652 12 9.44652Z" fill="white" fill-opacity="0.75"/>
<path d="M12.2209 13.3162C12.1628 13.2562 12.0822 13.2217 12 13.2217C11.9178 13.2217 11.8372 13.2562 11.7791 13.3162C11.7209 13.3762 11.6875 13.4594 11.6875 13.5442C11.6875 13.629 11.7209 13.7122 11.7791 13.7722C11.8372 13.8322 11.9178 13.8667 12 13.8667C12.0822 13.8667 12.1628 13.8322 12.2209 13.7722C12.2791 13.7122 12.3125 13.629 12.3125 13.5442C12.3125 13.4594 12.2791 13.3762 12.2209 13.3162Z" fill="white" fill-opacity="0.75"/>
<path d="M7.66906 0.0944868C7.61062 0.0345054 7.53031 0 7.44781 0C7.36562 0 7.28499 0.0345054 7.22687 0.0944868C7.16874 0.154468 7.13531 0.237668 7.13531 0.322481C7.13531 0.407293 7.16874 0.490493 7.22687 0.550474C7.28499 0.610456 7.36562 0.644961 7.44781 0.644961C7.53031 0.644961 7.61062 0.610456 7.66906 0.550474C7.72718 0.490493 7.76031 0.407293 7.76031 0.322481C7.76031 0.237668 7.72718 0.154468 7.66906 0.0944868Z" fill="white" fill-opacity="0.75"/>
</svg>
