<svg width="18" height="11" viewBox="0 0 18 11" fill="none" xmlns="http://www.w3.org/2000/svg">
<path d="M15.4311 1.43523C15.1851 1.16159 14.8378 1.0047 14.4781 1.0047H13.6062C13.2465 1.0047 12.8992 1.16163 12.6533 1.43523C12.4074 1.70883 12.2799 2.08032 12.3033 2.45441L12.4324 4.52025C12.4685 5.09619 12.7796 5.60606 13.2647 5.8842C13.5081 6.02375 13.7751 6.09353 14.0421 6.09353C14.3091 6.09353 14.5762 6.02375 14.8195 5.8842C15.3047 5.60609 15.6158 5.09619 15.6518 4.52025L15.7811 2.45441C15.8046 2.08032 15.677 1.70883 15.4311 1.43523ZM13.0188 2.40578C13.0081 2.23467 13.0642 2.07149 13.1767 1.94634C13.2892 1.82119 13.4417 1.7523 13.6062 1.7523H14.2347L14.1168 2.07995C14.0628 2.16105 13.7896 2.51143 13.0333 2.63753L13.0188 2.40578ZM14.9362 4.47162C14.9162 4.79151 14.7434 5.07475 14.4739 5.22925C14.2035 5.38427 13.8807 5.38427 13.6103 5.22925C13.3408 5.07479 13.168 4.79155 13.148 4.47162L13.08 3.38553C13.7152 3.29164 14.1283 3.06472 14.3854 2.85316C14.4338 2.88907 14.4876 2.92305 14.5467 2.95489C14.6556 3.01353 14.8119 3.07157 15.0201 3.13065L14.9362 4.47162ZM14.876 2.29074C14.8525 2.27806 14.834 2.26674 14.8191 2.2567L14.9237 1.96587C15.0168 2.07834 15.0672 2.21818 15.0668 2.36627C14.9559 2.32988 14.9005 2.30397 14.876 2.29074Z" fill="white" fill-opacity="0.75"/>
<path d="M17.9943 9.26951L17.8499 8.43862C17.6719 7.41435 16.8934 6.59683 15.9128 6.40437C15.7648 6.37527 15.6134 6.36057 15.4628 6.36057H15.0278C14.9327 6.36057 14.8416 6.39997 14.7743 6.47004L14.0422 7.2332L13.31 6.47C13.2427 6.39993 13.1516 6.36054 13.0565 6.36054H12.6216C12.471 6.36054 12.3195 6.37527 12.1715 6.40433C11.8527 6.46689 11.5549 6.59379 11.2847 6.78018C11.1582 6.76405 11.0308 6.75515 10.9037 6.75515H10.1115C10.0162 6.75515 9.9248 6.79469 9.85751 6.86505L8.99139 7.77092L8.10377 6.86223C8.03672 6.79359 7.94651 6.75515 7.85251 6.75515H7.08451C6.96098 6.75515 6.83708 6.76372 6.71397 6.77893C6.44383 6.59299 6.14616 6.4667 5.82834 6.40433C5.68034 6.37523 5.52892 6.36054 5.37831 6.36054H4.94342C4.84833 6.36054 4.75713 6.39993 4.68988 6.47L3.95774 7.2332L3.22561 6.47C3.15839 6.39993 3.06716 6.36054 2.97207 6.36054H2.53725C2.38664 6.36054 2.23522 6.37527 2.08722 6.40433C1.10656 6.5968 0.328133 7.41427 0.150136 8.43855L0.00574922 9.26944C-0.0132 9.37846 0.0152063 9.4906 0.0833744 9.57566C0.151507 9.66068 0.252301 9.70986 0.358578 9.70986H3.95085L3.8032 10.5597C3.78425 10.6687 3.81269 10.7808 3.88082 10.8658C3.94896 10.9509 4.04975 11 4.15603 11H13.8324C13.9386 11 14.0394 10.9509 14.1076 10.8658C14.1757 10.7808 14.2041 10.6686 14.1852 10.5597L14.0375 9.70989H17.6414C17.7477 9.70989 17.8485 9.66075 17.9167 9.57573C17.9848 9.49071 18.0132 9.37853 17.9943 9.26951ZM7.7059 7.50274L8.74288 8.56428C8.88343 8.70816 9.10899 8.70687 9.24811 8.56146L10.2604 7.50274H10.6019L8.9941 9.17866L7.38633 7.50274H7.7059ZM4.11813 8.96241H0.787908L0.855759 8.57187C0.981162 7.85033 1.52936 7.27454 2.21993 7.13898C2.32431 7.1185 2.43105 7.10813 2.53722 7.10813H2.82357L3.70423 8.02613C3.84426 8.17205 4.0713 8.17205 4.21136 8.02613L5.09203 7.10813H5.37841C5.46353 7.10813 5.54899 7.11513 5.63337 7.12836C4.92982 7.5141 4.38106 8.17099 4.11813 8.96241ZM4.58532 10.2526L4.70288 9.57602C4.86949 8.61753 5.56284 7.84058 6.45532 7.58937L8.74062 9.97155C8.88069 10.1175 9.10769 10.1175 9.24776 9.97155L11.5331 7.58937C12.4255 7.84062 13.1189 8.61757 13.2855 9.57602L13.403 10.2526H4.58532ZM13.8701 8.96237C13.6076 8.17202 13.0599 7.51578 12.3578 7.12982C12.445 7.11564 12.5335 7.10809 12.6216 7.10809H12.9079L13.7886 8.02609C13.8559 8.09616 13.9471 8.13555 14.0422 8.13555C14.1373 8.13555 14.2284 8.09616 14.2957 8.02609L15.1764 7.10809H15.4627C15.5689 7.10809 15.6756 7.1185 15.7801 7.13895C16.4706 7.27447 17.0188 7.85033 17.1442 8.57183L17.2121 8.96234H13.8701V8.96237Z" fill="white" fill-opacity="0.75"/>
<path d="M5.34663 1.43523C5.10071 1.16163 4.7534 1.0047 4.39375 1.0047H3.52184C3.16219 1.0047 2.81488 1.16162 2.569 1.43519C2.32308 1.7088 2.19546 2.08028 2.21884 2.45441L2.34808 4.52025C2.38411 5.09619 2.69528 5.60606 3.18037 5.8842C3.42375 6.02372 3.69077 6.09353 3.95778 6.09353C4.22479 6.09353 4.4918 6.02375 4.73519 5.8842C5.22031 5.60606 5.53148 5.09615 5.56748 4.52025L5.69672 2.45441C5.72017 2.08032 5.59255 1.70883 5.34663 1.43523ZM2.93445 2.40581C2.92373 2.23468 2.9798 2.07149 3.0923 1.94634C3.2048 1.82115 3.35734 1.7523 3.52184 1.7523H4.1503L4.03157 2.08234C3.98626 2.14951 3.7101 2.50883 2.94897 2.6372L2.93445 2.40581ZM4.85191 4.47155C4.83194 4.79151 4.65911 5.07472 4.38961 5.22922C4.11922 5.38423 3.79638 5.38423 3.52599 5.22922C3.25652 5.07475 3.08369 4.79151 3.06368 4.47159L2.99573 3.38549C3.63093 3.2916 4.04398 3.06468 4.30112 2.85312C4.34946 2.88904 4.40328 2.92297 4.46245 2.95485C4.57136 3.01349 4.72763 3.07154 4.93579 3.13061L4.85191 4.47155ZM4.79162 2.29074C4.7681 2.27806 4.74968 2.2667 4.7347 2.2567L4.83932 1.96587C4.93249 2.07834 4.98283 2.21822 4.98245 2.36627C4.87156 2.32988 4.81619 2.30397 4.79162 2.29074Z" fill="white" fill-opacity="0.75"/>
<path d="M10.771 0.538009C10.4637 0.196133 10.0296 0 9.58016 0H8.40808C7.95861 0 7.52457 0.196133 7.21727 0.538009C6.90996 0.879886 6.75049 1.34416 6.77974 1.81166L6.95349 4.5886C6.99916 5.31867 7.39361 5.96508 8.0086 6.31766C8.31717 6.49455 8.65555 6.58298 8.9941 6.58298C9.33252 6.58298 9.67111 6.49452 9.97961 6.31766C10.5946 5.96505 10.989 5.31867 11.0347 4.5886L11.1737 2.36682V2.36679L11.2084 1.81166C11.2377 1.34416 11.0783 0.879922 10.771 0.538009ZM7.52355 2.21331L7.49539 1.76303C7.47872 1.49705 7.56584 1.24353 7.7406 1.04908C7.9154 0.854599 8.15242 0.747518 8.40808 0.747518H9.43095L9.20479 1.37615C9.1381 1.48302 8.72987 2.0521 7.52355 2.21331ZM10.3191 4.53993C10.2895 5.01399 10.0334 5.43367 9.63402 5.6626C9.23331 5.8923 8.7549 5.8923 8.35422 5.6626C7.95488 5.43367 7.69877 5.01396 7.6691 4.5399L7.57023 2.95995C8.52501 2.83956 9.11152 2.48812 9.44941 2.18868C9.52742 2.25674 9.62069 2.3201 9.72905 2.37844C9.88437 2.4621 10.1182 2.54559 10.4385 2.63178L10.3191 4.53993ZM10.4929 1.763L10.4861 1.87118C10.2359 1.79821 10.1144 1.74456 10.0583 1.71433C9.96596 1.6646 9.91639 1.62392 9.89083 1.59827L10.1285 0.937714C10.1706 0.970879 10.2107 1.00789 10.2476 1.04908C10.4224 1.24353 10.5095 1.49705 10.4929 1.763Z" fill="white" fill-opacity="0.75"/>
<path d="M6.34658 9.23202H5.41431C5.21627 9.23202 5.05575 9.39935 5.05575 9.60578C5.05575 9.81221 5.21627 9.97954 5.41431 9.97954H6.34658C6.54462 9.97954 6.70514 9.81221 6.70514 9.60578C6.70514 9.39935 6.54462 9.23202 6.34658 9.23202Z" fill="white" fill-opacity="0.75"/>
<path d="M7.4223 9.23202H7.35058C7.15254 9.23202 6.99202 9.39935 6.99202 9.60578C6.99202 9.81221 7.15254 9.97954 7.35058 9.97954H7.4223C7.62033 9.97954 7.78086 9.81221 7.78086 9.60578C7.78086 9.39935 7.62033 9.23202 7.4223 9.23202Z" fill="white" fill-opacity="0.75"/>
</svg>
