<svg width="16" height="16" viewBox="0 0 16 16" fill="none" xmlns="http://www.w3.org/2000/svg">
<path d="M15.6875 15.375H14.3125V12.9063C14.3125 12.7337 14.1726 12.5938 14 12.5938C13.8274 12.5938 13.6875 12.7337 13.6875 12.9063V15.375H9.93751V9.43753C9.93751 9.26494 9.79757 9.12503 9.62501 9.12503H6.37502C6.20246 9.12503 6.06252 9.26494 6.06252 9.43753V15.375H2.31253V8.3125H2.43278C2.51566 8.3125 2.59513 8.27956 2.65375 8.22097L8.00002 2.87468L13.3463 8.22097C13.4049 8.27956 13.4844 8.3125 13.5672 8.3125H13.6875V10.6562C13.6875 10.8288 13.8274 10.9687 14 10.9687C14.1726 10.9687 14.3125 10.8288 14.3125 10.6562V8.3125H15.6875C15.8139 8.3125 15.9278 8.23634 15.9762 8.11959C16.0246 8.00284 15.9978 7.8684 15.9085 7.77903L8.22098 0.0915235C8.09892 -0.0305078 7.90111 -0.0305078 7.77902 0.0915235L4.84153 3.02903C4.71949 3.15106 4.71949 3.34893 4.84153 3.47096C4.96359 3.59303 5.16146 3.59303 5.28349 3.47096L8.00002 0.75443L14.933 7.6875H13.6967L8.22098 2.21177C8.09892 2.08974 7.90111 2.08974 7.77902 2.21177L2.30331 7.6875H1.06697L3.5335 5.221C3.65553 5.09896 3.65553 4.90109 3.5335 4.77903C3.41147 4.65703 3.21359 4.65699 3.09153 4.77903L0.0915402 7.77903C0.00219674 7.8684 -0.0245844 8.00281 0.0237904 8.11959C0.0721653 8.23637 0.186134 8.3125 0.31254 8.3125H1.68754V15.375H0.31254C0.139978 15.375 4.05027e-05 15.5149 4.05027e-05 15.6875C4.05027e-05 15.8601 0.139978 16 0.31254 16H15.6875C15.8601 16 16 15.8601 16 15.6875C16 15.5149 15.8601 15.375 15.6875 15.375ZM9.31251 15.375H6.68752V9.75003H9.31251V15.375Z" fill="white" fill-opacity="0.75"/>
<path d="M12.6875 9.12503H10.9375C10.7649 9.12503 10.625 9.26494 10.625 9.43753V12.5625C10.625 12.7351 10.7649 12.875 10.9375 12.875H12.6875C12.8601 12.875 13 12.7351 13 12.5625V9.43753C13 9.26494 12.8601 9.12503 12.6875 9.12503ZM12.375 12.25H11.25V9.75003H12.375V12.25Z" fill="white" fill-opacity="0.75"/>
<path d="M5.06252 9.12503H3.31253C3.13997 9.12503 3.00003 9.26494 3.00003 9.43753V12.5625C3.00003 12.7351 3.13997 12.875 3.31253 12.875H5.06252C5.23509 12.875 5.37502 12.7351 5.37502 12.5625V9.43753C5.37502 9.26494 5.23509 9.12503 5.06252 9.12503ZM4.75003 12.25H3.62503V9.75003H4.75003V12.25Z" fill="white" fill-opacity="0.75"/>
<path d="M8.00002 5.13503C7.20739 5.13503 6.56252 5.7799 6.56252 6.57253C6.56252 7.36515 7.20739 8.01003 8.00002 8.01003C8.79264 8.01003 9.43751 7.36515 9.43751 6.57253C9.43751 5.7799 8.79264 5.13503 8.00002 5.13503ZM8.00002 7.38503C7.55199 7.38503 7.18752 7.02053 7.18752 6.57253C7.18752 6.12453 7.55199 5.76003 8.00002 5.76003C8.44805 5.76003 8.81251 6.12453 8.81251 6.57253C8.81251 7.02053 8.44805 7.38503 8.00002 7.38503Z" fill="white" fill-opacity="0.75"/>
<path d="M7.62717 12.3416C7.56908 12.2835 7.48842 12.25 7.40627 12.25C7.32408 12.25 7.24346 12.2835 7.18533 12.3416C7.12721 12.3997 7.09377 12.4803 7.09377 12.5625C7.09377 12.6447 7.12717 12.7253 7.18533 12.7835C7.24349 12.8416 7.32408 12.875 7.40627 12.875C7.48845 12.875 7.56908 12.8416 7.62717 12.7835C7.6853 12.7253 7.71877 12.6447 7.71877 12.5625C7.71877 12.4803 7.68533 12.3997 7.62717 12.3416Z" fill="white" fill-opacity="0.75"/>
<path d="M4.37718 3.93534C4.31909 3.87721 4.23846 3.84378 4.15628 3.84378C4.07409 3.84378 3.99347 3.87721 3.93534 3.93534C3.87722 3.99346 3.84378 4.07409 3.84378 4.15628C3.84378 4.23846 3.87718 4.31909 3.93534 4.37721C3.9935 4.43534 4.07409 4.46878 4.15628 4.46878C4.23846 4.46878 4.31909 4.43534 4.37718 4.37721C4.43531 4.31909 4.46878 4.23846 4.46878 4.15628C4.46878 4.07409 4.43534 3.99346 4.37718 3.93534Z" fill="white" fill-opacity="0.75"/>
<path d="M14.2209 11.4769C14.1628 11.4188 14.0822 11.3853 14 11.3853C13.9178 11.3853 13.8372 11.4187 13.7791 11.4769C13.7209 11.5353 13.6875 11.6156 13.6875 11.6978C13.6875 11.78 13.7209 11.8606 13.7791 11.9191C13.8372 11.9772 13.9178 12.0103 14 12.0103C14.0822 12.0103 14.1628 11.9772 14.2209 11.9191C14.279 11.8606 14.3125 11.7803 14.3125 11.6978C14.3125 11.6156 14.2791 11.535 14.2209 11.4769Z" fill="white" fill-opacity="0.75"/>
</svg>
