<svg width="202" height="48" viewBox="0 0 202 48" fill="none" xmlns="http://www.w3.org/2000/svg">
<path d="M79.168 35H66.6885V16.7949H79.168V20.4385H70.332V24.082H76.3115V27.7256H70.332V31.3564H79.168V35ZM84.8174 35H81.3516V21.4033H82.1895L83.332 22.7236C83.8906 22.2158 84.5212 21.8265 85.2236 21.5557C85.9346 21.2764 86.6751 21.1367 87.4453 21.1367C88.2747 21.1367 89.0576 21.2975 89.7939 21.6191C90.5303 21.9323 91.1735 22.3682 91.7236 22.9268C92.2738 23.4769 92.7054 24.1243 93.0186 24.8691C93.3402 25.6055 93.501 26.3926 93.501 27.2305V35H90.0352V27.2305C90.0352 26.875 89.9674 26.5407 89.832 26.2275C89.6966 25.9059 89.5104 25.6266 89.2734 25.3896C89.0365 25.1527 88.7614 24.9665 88.4482 24.8311C88.1351 24.6956 87.8008 24.6279 87.4453 24.6279C87.0814 24.6279 86.7386 24.6956 86.417 24.8311C86.0954 24.9665 85.8161 25.1527 85.5791 25.3896C85.3421 25.6266 85.1559 25.9059 85.0205 26.2275C84.8851 26.5407 84.8174 26.875 84.8174 27.2305V35ZM99.4678 35H95.9766V15.9951H99.4678V27.9795L104.635 21.4287H108.621L104.114 27.0908L108.621 35H104.635L101.88 30.0615L99.4678 33.2607V35ZM114.969 31.6738C115.104 31.7161 115.24 31.7458 115.375 31.7627C115.51 31.7712 115.646 31.7754 115.781 31.7754C116.12 31.7754 116.446 31.7288 116.759 31.6357C117.072 31.5426 117.364 31.4115 117.635 31.2422C117.914 31.0645 118.16 30.8529 118.371 30.6074C118.591 30.3535 118.769 30.0742 118.904 29.7695L121.443 32.3213C121.122 32.7783 120.749 33.1888 120.326 33.5527C119.911 33.9167 119.459 34.2256 118.968 34.4795C118.485 34.7334 117.973 34.9238 117.432 35.0508C116.898 35.1862 116.348 35.2539 115.781 35.2539C114.825 35.2539 113.924 35.0762 113.077 34.7207C112.239 34.3652 111.503 33.8701 110.868 33.2354C110.242 32.6006 109.747 31.8473 109.383 30.9756C109.019 30.0954 108.837 29.1305 108.837 28.0811C108.837 27.0062 109.019 26.0244 109.383 25.1357C109.747 24.2471 110.242 23.4896 110.868 22.8633C111.503 22.237 112.239 21.7503 113.077 21.4033C113.924 21.0563 114.825 20.8828 115.781 20.8828C116.348 20.8828 116.903 20.9505 117.444 21.0859C117.986 21.2214 118.498 21.416 118.98 21.6699C119.471 21.9238 119.928 22.237 120.352 22.6094C120.775 22.9733 121.147 23.3838 121.469 23.8408L114.969 31.6738ZM116.746 24.5264C116.585 24.4671 116.424 24.429 116.264 24.4121C116.111 24.3952 115.951 24.3867 115.781 24.3867C115.307 24.3867 114.859 24.4756 114.436 24.6533C114.021 24.8226 113.657 25.068 113.344 25.3896C113.039 25.7113 112.798 26.1006 112.62 26.5576C112.442 27.0062 112.354 27.514 112.354 28.0811C112.354 28.208 112.358 28.3519 112.366 28.5127C112.383 28.6735 112.404 28.8385 112.43 29.0078C112.464 29.1686 112.502 29.3252 112.544 29.4775C112.586 29.6299 112.641 29.7653 112.709 29.8838L116.746 24.5264ZM126.712 35H123.221V15.9951H126.712V35ZM136.183 35C135.345 35 134.558 34.8434 133.821 34.5303C133.085 34.2087 132.438 33.7728 131.879 33.2227C131.329 32.6641 130.893 32.0166 130.571 31.2803C130.258 30.5439 130.102 29.7568 130.102 28.9189V24.8818H128.413V21.4287H130.102V15.9951H133.555V21.4287H138.811V24.8818H133.555V28.9189C133.555 29.2829 133.622 29.6257 133.758 29.9473C133.893 30.2604 134.079 30.5355 134.316 30.7725C134.553 31.0094 134.833 31.1999 135.154 31.3438C135.476 31.4792 135.819 31.5469 136.183 31.5469H138.811V35H136.183Z" fill="#3CA4E6"/>
<path d="M148.23 35H140.309V31.5469H148.23C148.467 31.5469 148.671 31.4622 148.84 31.293C149.009 31.1237 149.094 30.9206 149.094 30.6836C149.094 30.4382 149.009 30.2773 148.84 30.2012C148.671 30.125 148.467 30.0869 148.23 30.0869H144.625C144.024 30.0869 143.461 29.9727 142.937 29.7441C142.412 29.5156 141.955 29.2067 141.565 28.8174C141.176 28.4196 140.867 27.9583 140.639 27.4336C140.419 26.9089 140.309 26.346 140.309 25.7451C140.309 25.1442 140.419 24.5814 140.639 24.0566C140.867 23.5319 141.176 23.0749 141.565 22.6855C141.955 22.2962 142.412 21.9915 142.937 21.7715C143.461 21.543 144.024 21.4287 144.625 21.4287H151.646V24.8818H144.625C144.388 24.8818 144.185 24.9665 144.016 25.1357C143.846 25.305 143.762 25.5081 143.762 25.7451C143.762 25.9906 143.846 26.2021 144.016 26.3799C144.185 26.5492 144.388 26.6338 144.625 26.6338H148.23C148.823 26.6338 149.382 26.7354 149.906 26.9385C150.431 27.1331 150.888 27.4082 151.277 27.7637C151.667 28.1191 151.976 28.5465 152.204 29.0459C152.433 29.5452 152.547 30.0911 152.547 30.6836C152.547 31.2845 152.433 31.8473 152.204 32.3721C151.976 32.8883 151.667 33.3454 151.277 33.7432C150.888 34.1325 150.431 34.4414 149.906 34.6699C149.382 34.89 148.823 35 148.23 35ZM161.218 35C160.38 35 159.593 34.8434 158.856 34.5303C158.12 34.2087 157.473 33.7728 156.914 33.2227C156.364 32.6641 155.928 32.0166 155.606 31.2803C155.293 30.5439 155.137 29.7568 155.137 28.9189V24.8818H153.448V21.4287H155.137V15.9951H158.59V21.4287H163.846V24.8818H158.59V28.9189C158.59 29.2829 158.658 29.6257 158.793 29.9473C158.928 30.2604 159.115 30.5355 159.352 30.7725C159.589 31.0094 159.868 31.1999 160.189 31.3438C160.511 31.4792 160.854 31.5469 161.218 31.5469H163.846V35H161.218ZM169.076 40.1797V36.6885L171.006 36.7139C171.344 36.7139 171.67 36.6589 171.983 36.5488C172.297 36.4388 172.584 36.2865 172.847 36.0918C173.118 35.8971 173.354 35.6644 173.558 35.3936C173.761 35.1312 173.926 34.8434 174.053 34.5303C173.672 34.6911 173.283 34.8519 172.885 35.0127C172.495 35.1735 172.102 35.2539 171.704 35.2539C170.866 35.2539 170.079 35.1058 169.343 34.8096C168.606 34.5133 167.959 34.0944 167.4 33.5527C166.85 33.0026 166.414 32.3382 166.093 31.5596C165.78 30.7725 165.623 29.8923 165.623 28.9189V21.4033H169.076V28.9189C169.076 29.4014 169.144 29.8245 169.279 30.1885C169.423 30.5439 169.614 30.8444 169.851 31.0898C170.088 31.3268 170.363 31.5046 170.676 31.623C170.997 31.7415 171.34 31.8008 171.704 31.8008C172.06 31.8008 172.394 31.7204 172.707 31.5596C173.029 31.3903 173.308 31.1702 173.545 30.8994C173.782 30.6286 173.968 30.3239 174.104 29.9854C174.239 29.6383 174.307 29.2829 174.307 28.9189V21.4033H177.798V33.2861C177.789 34.2425 177.603 35.1396 177.239 35.9775C176.875 36.8154 176.376 37.5475 175.741 38.1738C175.115 38.8001 174.383 39.2952 173.545 39.6592C172.707 40.0231 171.81 40.2051 170.854 40.2051L169.076 40.1797ZM183.917 35H180.451V21.4033H181.289L182.432 23.0156C182.99 22.5078 183.625 22.1185 184.336 21.8477C185.047 21.5684 185.783 21.4287 186.545 21.4287H189.604V24.8818H186.545C186.181 24.8818 185.838 24.9495 185.517 25.085C185.195 25.2204 184.916 25.4066 184.679 25.6436C184.442 25.8805 184.256 26.1598 184.12 26.4814C183.985 26.8031 183.917 27.1458 183.917 27.5098V35ZM198.034 35C197.196 35 196.409 34.8434 195.673 34.5303C194.937 34.2087 194.289 33.7728 193.73 33.2227C193.18 32.6641 192.744 32.0166 192.423 31.2803C192.11 30.5439 191.953 29.7568 191.953 28.9189V24.8818H190.265V21.4287H191.953V15.9951H195.406V21.4287H200.662V24.8818H195.406V28.9189C195.406 29.2829 195.474 29.6257 195.609 29.9473C195.745 30.2604 195.931 30.5355 196.168 30.7725C196.405 31.0094 196.684 31.1999 197.006 31.3438C197.327 31.4792 197.67 31.5469 198.034 31.5469H200.662V35H198.034Z" fill="#392E34"/>
<path d="M-0.000220919 46.8463C9.16504 38.7736 35.4677 27.7026 67.3561 48C52.2998 41.2552 17.7497 31.5818 -0.000220919 46.8463Z" fill="#392E34"/>
<path d="M31.9502 5.32501L42.6002 0L42.3783 40.1595L31.9502 38.9222V5.32501Z" fill="#3CA4E6"/>
<path d="M55.0249 12.2031L44.3749 6.65625V38.6063L55.0249 42.1563V12.2031Z" fill="#392E34"/>
<path d="M19.5249 17.949L30.1749 12.8688V38.6063H19.5249V17.949Z" fill="#392E34"/>
<rect x="23.519" y="22.1875" width="2.66251" height="3.99376" fill="white"/>
<rect x="23.519" y="27.5126" width="2.66251" height="3.99376" fill="white"/>
<rect x="48.3691" y="23.0751" width="2.66251" height="3.99376" fill="white"/>
<rect x="48.3696" y="17.75" width="2.66251" height="3.99376" fill="white"/>
<rect x="34.1689" y="10.65" width="2.66251" height="3.99376" fill="white"/>
<rect x="37.7188" y="10.65" width="2.66251" height="3.99376" fill="white"/>
<rect x="34.1685" y="15.975" width="2.66251" height="3.99376" fill="white"/>
<rect x="37.7188" y="15.975" width="2.66251" height="3.99376" fill="white"/>
<rect x="34.1685" y="21.3" width="2.66251" height="3.99376" fill="white"/>
<rect x="37.7188" y="21.3" width="2.66251" height="3.99376" fill="white"/>
</svg>
