<svg width="20" height="18" viewBox="0 0 20 18" fill="none" xmlns="http://www.w3.org/2000/svg">
<path d="M14.6343 17.2969H14.6294C14.4137 17.2969 14.2387 17.4543 14.2387 17.6484C14.2387 17.8426 14.4137 18 14.6294 18H14.6343C14.85 18 15.0249 17.8426 15.0249 17.6484C15.0249 17.4543 14.85 17.2969 14.6343 17.2969Z" fill="#BBBBBB"/>
<path d="M19.8846 5.93655L17.1094 3.45646V1.40625C17.1094 0.630844 16.4084 0 15.5469 0H4.45312C3.59156 0 2.89062 0.630844 2.89062 1.40625V3.43884L0.114414 5.9374C0.0411719 6.00339 0 6.09279 0 6.18602V15.2051C0 16.7462 1.39313 18 3.10547 18H12.888C13.1037 18 13.2786 17.8426 13.2786 17.6484C13.2786 17.4543 13.1037 17.2969 12.888 17.2969H3.10547C2.64816 17.2969 2.22168 17.1769 1.86176 16.9708L2.59406 16.3118H8.59367C8.80937 16.3118 8.9843 16.1543 8.9843 15.9602C8.9843 15.7661 8.80937 15.6086 8.59367 15.6086H3.37527L8.03488 11.415C9.11848 10.4398 10.8816 10.4398 11.9651 11.415L18.1382 16.9708C17.7783 17.1769 17.3518 17.2969 16.8945 17.2969H16.3672C16.1515 17.2969 15.9766 17.4543 15.9766 17.6484C15.9766 17.8426 16.1515 18 16.3672 18H16.8945C17.6902 18 18.4166 17.7291 18.9667 17.2846C18.9802 17.2753 18.9933 17.2654 19.0057 17.2543C19.0108 17.2497 19.0154 17.2447 19.0202 17.2399C19.6227 16.7297 20 16.0065 20 15.2051V6.18602C20 6.09237 19.9585 6.00254 19.8846 5.93655ZM17.1094 4.44734L19.056 6.1869L17.1094 7.93884V4.44734ZM2.89062 4.43324V7.93884L0.943086 6.18602L2.89062 4.43324ZM1.28121 16.4989C0.968555 16.1426 0.78125 15.6933 0.78125 15.2051V7.0348L6.28906 11.9919L1.28121 16.4989ZM12.5175 10.9178C11.1294 9.66853 8.87062 9.66853 7.48246 10.9178L6.84152 11.4947L3.67188 8.64197V1.40625C3.67188 1.01855 4.02234 0.703125 4.45312 0.703125H15.5469C15.9777 0.703125 16.3281 1.01855 16.3281 1.40625V8.64197L13.1585 11.4947L12.5175 10.9178ZM19.2188 15.2051C19.2188 15.6933 19.0314 16.1426 18.7188 16.4989L13.7109 11.9919L19.2188 7.0348V15.2051Z" fill="#BBBBBB"/>
<path d="M10.2344 3.23438H6.30973C6.09402 3.23438 5.9191 3.3918 5.9191 3.58594C5.9191 3.78007 6.09402 3.9375 6.30973 3.9375H10.2344C10.4501 3.9375 10.625 3.78007 10.625 3.58594C10.625 3.3918 10.4501 3.23438 10.2344 3.23438Z" fill="#BBBBBB"/>
<path d="M12.3207 3.33738C12.2477 3.27199 12.1469 3.23438 12.0441 3.23438C11.9414 3.23438 11.8406 3.27196 11.768 3.33738C11.6953 3.40281 11.6535 3.49348 11.6535 3.58594C11.6535 3.6784 11.6953 3.7691 11.768 3.83446C11.841 3.89988 11.9414 3.9375 12.0441 3.9375C12.1469 3.9375 12.2477 3.89988 12.3207 3.83446C12.3933 3.7691 12.4348 3.6784 12.4348 3.58594C12.4348 3.49348 12.3933 3.40277 12.3207 3.33738Z" fill="#BBBBBB"/>
<path d="M13.6902 5.76562H6.30973C6.09402 5.76562 5.9191 5.92305 5.9191 6.11719C5.9191 6.31132 6.09402 6.46875 6.30973 6.46875H13.6902C13.9059 6.46875 14.0809 6.31132 14.0809 6.11719C14.0809 5.92305 13.9059 5.76562 13.6902 5.76562Z" fill="#BBBBBB"/>
<path d="M13.6903 8.29688H6.30973C6.09402 8.29688 5.9191 8.4543 5.9191 8.64844C5.9191 8.84257 6.09402 9 6.30973 9H13.6902C13.906 9 14.0809 8.84257 14.0809 8.64844C14.0809 8.4543 13.906 8.29688 13.6903 8.29688Z" fill="#BBBBBB"/>
</svg>
