<svg width="31" height="22" viewBox="0 0 31 22" fill="none" xmlns="http://www.w3.org/2000/svg">
<path d="M27.9479 0.75C28.2702 0.75 28.5729 0.813477 28.8561 0.94043C29.1393 1.05762 29.3884 1.22363 29.6032 1.43848C29.818 1.65332 29.9841 1.90234 30.1012 2.18555C30.2282 2.46875 30.2917 2.77148 30.2917 3.09375V19.0312C30.2917 19.3535 30.2282 19.6562 30.1012 19.9395C29.9841 20.2227 29.818 20.4717 29.6032 20.6865C29.3884 20.9014 29.1393 21.0723 28.8561 21.1992C28.5729 21.3164 28.2702 21.375 27.9479 21.375H2.63543C2.31316 21.375 2.01043 21.3164 1.72723 21.1992C1.44402 21.0723 1.195 20.9014 0.980155 20.6865C0.765311 20.4717 0.594413 20.2227 0.46746 19.9395C0.350272 19.6562 0.291678 19.3535 0.291678 19.0312V3.09375C0.291678 2.77148 0.350272 2.46875 0.46746 2.18555C0.594413 1.90234 0.765311 1.65332 0.980155 1.43848C1.195 1.22363 1.44402 1.05762 1.72723 0.94043C2.01043 0.813477 2.31316 0.75 2.63543 0.75H27.9479ZM2.63543 2.625C2.49871 2.625 2.3864 2.66895 2.29851 2.75684C2.21062 2.84473 2.16668 2.95703 2.16668 3.09375V6.375H28.4167V3.09375C28.4167 2.95703 28.3727 2.84473 28.2848 2.75684C28.197 2.66895 28.0846 2.625 27.9479 2.625H2.63543ZM27.9479 19.5C28.0846 19.5 28.197 19.4561 28.2848 19.3682C28.3727 19.2803 28.4167 19.168 28.4167 19.0312V8.25H2.16668V19.0312C2.16668 19.168 2.21062 19.2803 2.29851 19.3682C2.3864 19.4561 2.49871 19.5 2.63543 19.5H27.9479ZM20.9167 13.875H24.6667V15.75H20.9167V13.875Z" fill="url(#paint0_linear)"/>
<defs>
<linearGradient id="paint0_linear" x1="5" y1="14.6613" x2="26.1834" y2="14.6613" gradientUnits="userSpaceOnUse">
<stop stop-color="#3CA4E6"/>
<stop offset="1" stop-color="#3C71DA"/>
</linearGradient>
</defs>
</svg>
