<svg width="27" height="29" viewBox="0 0 27 29" fill="none" xmlns="http://www.w3.org/2000/svg">
<path d="M22.2565 10.1514C22.8913 10.4736 23.4626 10.874 23.9704 11.3525C24.488 11.8213 24.9274 12.3486 25.2887 12.9346C25.6501 13.5107 25.9284 14.1357 26.1237 14.8096C26.319 15.4736 26.4167 16.1621 26.4167 16.875H24.5417C24.5417 16.1035 24.3903 15.376 24.0876 14.6924C23.7946 14.0088 23.3942 13.4131 22.8864 12.9053C22.3786 12.3975 21.7829 11.9971 21.0993 11.7041C20.4157 11.4014 19.6882 11.25 18.9167 11.25C18.1452 11.25 17.4177 11.4014 16.7341 11.7041C16.0505 11.9971 15.4548 12.3975 14.947 12.9053C14.4391 13.4131 14.0339 14.0088 13.7311 14.6924C13.4382 15.376 13.2917 16.1035 13.2917 16.875C13.2917 17.7637 13.0866 18.6084 12.6764 19.4092C12.2761 20.21 11.7194 20.874 11.0065 21.4014C11.6413 21.7236 12.2126 22.124 12.7204 22.6025C13.238 23.0713 13.6774 23.5986 14.0387 24.1846C14.4001 24.7607 14.6784 25.3857 14.8737 26.0596C15.069 26.7236 15.1667 27.4121 15.1667 28.125H13.2917C13.2917 27.3535 13.1403 26.626 12.8376 25.9424C12.5446 25.2588 12.1442 24.6631 11.6364 24.1553C11.1286 23.6475 10.5329 23.2471 9.8493 22.9541C9.1657 22.6514 8.43816 22.5 7.66668 22.5C6.89519 22.5 6.16765 22.6514 5.48406 22.9541C4.80047 23.2471 4.20476 23.6475 3.69695 24.1553C3.18914 24.6631 2.78387 25.2588 2.48113 25.9424C2.18816 26.626 2.04168 27.3535 2.04168 28.125H0.166678C0.166678 27.4121 0.264335 26.7236 0.459647 26.0596C0.65496 25.3857 0.93328 24.7607 1.29461 24.1846C1.65594 23.5986 2.09051 23.0713 2.59832 22.6025C3.1159 22.124 3.69207 21.7236 4.32683 21.4014C3.61394 20.874 3.05242 20.21 2.64226 19.4092C2.24187 18.6084 2.04168 17.7637 2.04168 16.875C2.04168 16.1035 2.18816 15.376 2.48113 14.6924C2.78387 14.0088 3.18914 13.4131 3.69695 12.9053C4.20476 12.3975 4.80047 11.9971 5.48406 11.7041C6.16765 11.4014 6.89519 11.25 7.66668 11.25C8.55535 11.25 9.40008 11.4551 10.2009 11.8652C11.0016 12.2656 11.6657 12.8223 12.193 13.5352C12.5641 12.8027 13.0378 12.1484 13.6139 11.5723C14.1901 10.9961 14.8444 10.5225 15.5768 10.1514C14.8639 9.62402 14.3024 8.95996 13.8923 8.15918C13.4919 7.3584 13.2917 6.51367 13.2917 5.625C13.2917 4.85352 13.4382 4.12598 13.7311 3.44238C14.0339 2.75879 14.4391 2.16309 14.947 1.65527C15.4548 1.14746 16.0505 0.74707 16.7341 0.454102C17.4177 0.151367 18.1452 0 18.9167 0C19.6882 0 20.4157 0.151367 21.0993 0.454102C21.7829 0.74707 22.3786 1.14746 22.8864 1.65527C23.3942 2.16309 23.7946 2.75879 24.0876 3.44238C24.3903 4.12598 24.5417 4.85352 24.5417 5.625C24.5417 6.51367 24.3366 7.3584 23.9264 8.15918C23.5261 8.95996 22.9694 9.62402 22.2565 10.1514ZM7.66668 20.625C8.17449 20.625 8.65789 20.5273 9.11687 20.332C9.57586 20.127 9.97137 19.8584 10.3034 19.5264C10.6452 19.1846 10.9137 18.7891 11.1091 18.3398C11.3141 17.8809 11.4167 17.3926 11.4167 16.875C11.4167 16.3672 11.3141 15.8838 11.1091 15.4248C10.9137 14.9658 10.6452 14.5703 10.3034 14.2383C9.97137 13.8965 9.57586 13.6279 9.11687 13.4326C8.65789 13.2275 8.17449 13.125 7.66668 13.125C7.1491 13.125 6.66082 13.2275 6.20183 13.4326C5.75262 13.6279 5.35711 13.8965 5.01531 14.2383C4.68328 14.5703 4.41473 14.9658 4.20965 15.4248C4.01433 15.8838 3.91668 16.3672 3.91668 16.875C3.91668 17.3926 4.01433 17.8809 4.20965 18.3398C4.41473 18.7891 4.68328 19.1846 5.01531 19.5264C5.35711 19.8584 5.75262 20.127 6.20183 20.332C6.66082 20.5273 7.1491 20.625 7.66668 20.625ZM15.1667 5.625C15.1667 6.14258 15.2643 6.63086 15.4596 7.08984C15.6647 7.53906 15.9333 7.93457 16.2653 8.27637C16.6071 8.6084 17.0026 8.87695 17.4518 9.08203C17.9108 9.27734 18.3991 9.375 18.9167 9.375C19.4245 9.375 19.9079 9.27734 20.3669 9.08203C20.8259 8.87695 21.2214 8.6084 21.5534 8.27637C21.8952 7.93457 22.1637 7.53906 22.3591 7.08984C22.5641 6.63086 22.6667 6.14258 22.6667 5.625C22.6667 5.11719 22.5641 4.63379 22.3591 4.1748C22.1637 3.71582 21.8952 3.32031 21.5534 2.98828C21.2214 2.64648 20.8259 2.37793 20.3669 2.18262C19.9079 1.97754 19.4245 1.875 18.9167 1.875C18.3991 1.875 17.9108 1.97754 17.4518 2.18262C17.0026 2.37793 16.6071 2.64648 16.2653 2.98828C15.9333 3.32031 15.6647 3.71582 15.4596 4.1748C15.2643 4.63379 15.1667 5.11719 15.1667 5.625Z" fill="url(#paint0_linear)"/>
<defs>
<linearGradient id="paint0_linear" x1="3" y1="17.6613" x2="24.1834" y2="17.6613" gradientUnits="userSpaceOnUse">
<stop stop-color="#3CA4E6"/>
<stop offset="1" stop-color="#3C71DA"/>
</linearGradient>
</defs>
</svg>
