<svg width="16" height="16" viewBox="0 0 16 16" fill="none" xmlns="http://www.w3.org/2000/svg">
<path d="M13.7286 10.9012L13.7061 10.8784C13.5843 10.7561 13.3864 10.7557 13.2641 10.8774C13.1418 10.9992 13.1414 11.1971 13.2632 11.3194L13.2818 11.3382C13.343 11.4008 13.4241 11.4322 13.5052 11.4322C13.584 11.4322 13.6629 11.4026 13.7237 11.3431C13.8471 11.2224 13.8493 11.0246 13.7286 10.9012Z" fill="white" fill-opacity="0.75"/>
<path d="M15.6875 15.375H14.8125V13.5589C14.8125 12.965 14.6711 12.3718 14.4035 11.8435C14.3255 11.6895 14.1374 11.6279 13.9836 11.7059C13.8296 11.7838 13.768 11.9719 13.846 12.1258C14.0694 12.5671 14.1875 13.0626 14.1875 13.5588V15.375H1.8125V13.5569C1.8125 12.077 2.86166 10.7727 4.30716 10.4556L5.37575 10.2212C5.57916 10.1766 5.76875 10.0978 5.93931 9.99197C6.51181 10.4877 7.23509 10.7583 7.99997 10.7583C8.76209 10.7583 9.48291 10.4897 10.0544 9.99734C10.2227 10.1002 10.4091 10.1769 10.6089 10.2206L11.6907 10.4571C11.9573 10.5154 12.2151 10.6075 12.4567 10.7309C12.5022 10.7542 12.5508 10.7652 12.5986 10.7652C12.7123 10.7652 12.8219 10.7029 12.8772 10.5947C12.9557 10.441 12.8947 10.2528 12.7409 10.1743C12.4516 10.0266 12.1431 9.91631 11.8242 9.84656L10.7424 9.61006C10.1959 9.49056 9.79922 8.99778 9.79922 8.43834V8.31781C10.5009 7.91825 11.0097 7.21778 11.149 6.39325H11.2956C11.7873 6.39325 12.1875 5.99313 12.1875 5.50131V4.91016C12.1875 4.41838 11.7873 4.01825 11.2956 4.01825H11.1875V2.73959C11.1875 1.22897 9.95853 0 8.44791 0H7.55209C6.04147 0 4.8125 1.22897 4.8125 2.73959V4.01822H4.70441C4.21263 4.01822 3.8125 4.41834 3.8125 4.91012V5.50128C3.8125 5.99309 4.21263 6.39322 4.70441 6.39322H4.85097C4.98919 7.21128 5.49113 7.90728 6.18425 8.30838V8.43919C6.18425 8.99825 5.78791 9.49094 5.24188 9.61072L4.17328 9.84516C3.33006 10.0301 2.56769 10.5024 2.02662 11.1751C1.4855 11.8477 1.1875 12.6936 1.1875 13.5569V15.375H0.3125C0.139938 15.375 0 15.5149 0 15.6875C0 15.8601 0.139938 16 0.3125 16H15.6875C15.8601 16 16 15.8601 16 15.6875C16 15.5149 15.8601 15.375 15.6875 15.375ZM11.1875 4.64322H11.2956C11.4428 4.64322 11.5625 4.76294 11.5625 4.91012V5.50128C11.5625 5.64847 11.4428 5.76822 11.2956 5.76822H11.1875V4.64322ZM4.8125 5.76822H4.70441C4.55722 5.76822 4.4375 5.64847 4.4375 5.50128V4.91012C4.4375 4.76294 4.55722 4.64322 4.70441 4.64322H4.8125V5.76822ZM8 10.1333C7.41453 10.1333 6.85959 9.93534 6.41109 9.57156C6.63491 9.28972 6.77662 8.94278 6.804 8.57122C7.04187 8.63878 7.29284 8.675 7.55209 8.675H8.44791C8.70131 8.675 8.94675 8.64025 9.17984 8.57556C9.20847 8.94894 9.35234 9.29728 9.57897 9.57931C9.13219 9.93803 8.58122 10.1333 8 10.1333ZM5.4375 2.73959C5.4375 1.57359 6.38609 0.625 7.55209 0.625H8.44791C9.50497 0.625 10.3834 1.40469 10.5382 2.41916C10.5138 2.43284 10.4907 2.44984 10.4698 2.47062C9.47188 3.46863 8.145 4.01819 6.73369 4.01819H5.4375V2.73959ZM5.4375 5.93544V4.64322H6.73369C7.51356 4.64322 8.27434 4.49188 8.99484 4.19344C9.56837 3.95588 10.0938 3.63409 10.5625 3.23469V5.93544C10.5625 7.10144 9.61391 8.05 8.44791 8.05H7.55209C6.38609 8.05 5.4375 7.10141 5.4375 5.93544Z" fill="white" fill-opacity="0.75"/>
<path d="M3.909 11.6151C3.80191 11.4798 3.60541 11.4569 3.47 11.564C2.85697 12.0491 2.50537 12.7755 2.50537 13.5569C2.50537 13.7294 2.64531 13.8694 2.81787 13.8694C2.99044 13.8694 3.13037 13.7294 3.13037 13.5569C3.13037 12.9677 3.39553 12.4199 3.85788 12.0541C3.99319 11.9469 4.01609 11.7504 3.909 11.6151Z" fill="white" fill-opacity="0.75"/>
<path d="M4.87366 11.3132C4.83647 11.1447 4.66975 11.0383 4.50112 11.0754L4.48666 11.0787C4.31816 11.1161 4.21194 11.283 4.24937 11.4515C4.28172 11.5972 4.41087 11.6963 4.55412 11.6963C4.57659 11.6963 4.59937 11.6938 4.62222 11.6888L4.63591 11.6858C4.80444 11.6486 4.91087 11.4818 4.87366 11.3132Z" fill="white" fill-opacity="0.75"/>
</svg>
