<svg width="29" height="29" viewBox="0 0 29 29" fill="none" xmlns="http://www.w3.org/2000/svg">
<path d="M14.3542 0.0585938C15.6432 0.0585938 16.8835 0.224609 18.0749 0.556641C19.2663 0.888672 20.3796 1.3623 21.4147 1.97754C22.4596 2.58301 23.4069 3.31055 24.2565 4.16016C25.1061 5.00977 25.8337 5.95703 26.4391 7.00195C27.0544 8.03711 27.528 9.15039 27.86 10.3418C28.1921 11.5332 28.3581 12.7734 28.3581 14.0625C28.3581 15.3516 28.1921 16.5918 27.86 17.7832C27.528 18.9746 27.0544 20.0928 26.4391 21.1377C25.8337 22.1729 25.1061 23.1152 24.2565 23.9648C23.4069 24.8145 22.4596 25.5469 21.4147 26.1621C20.3796 26.7676 19.2663 27.2363 18.0749 27.5684C16.8835 27.9004 15.6432 28.0664 14.3542 28.0664C13.0651 28.0664 11.8249 27.9004 10.6335 27.5684C9.44207 27.2363 8.3239 26.7676 7.27898 26.1621C6.24383 25.5469 5.30144 24.8145 4.45183 23.9648C3.60223 23.1152 2.8698 22.1729 2.25457 21.1377C1.6491 20.0928 1.18035 18.9746 0.848319 17.7832C0.516288 16.5918 0.350272 15.3516 0.350272 14.0625C0.350272 12.7734 0.516288 11.5332 0.848319 10.3418C1.18035 9.15039 1.6491 8.03711 2.25457 7.00195C2.8698 5.95703 3.60223 5.00977 4.45183 4.16016C5.30144 3.31055 6.24383 2.58301 7.27898 1.97754C8.3239 1.3623 9.44207 0.888672 10.6335 0.556641C11.8249 0.224609 13.0651 0.0585938 14.3542 0.0585938ZM14.3542 26.3086C15.4772 26.3086 16.5612 26.1621 17.6061 25.8691C18.6511 25.5762 19.6276 25.166 20.5358 24.6387C21.444 24.1016 22.2692 23.4619 23.0114 22.7197C23.7536 21.9775 24.3884 21.1523 24.9157 20.2441C25.4528 19.3359 25.8679 18.3594 26.1608 17.3145C26.4538 16.2695 26.6003 15.1855 26.6003 14.0625C26.6003 12.9395 26.4538 11.8555 26.1608 10.8105C25.8679 9.76563 25.4528 8.78906 24.9157 7.88086C24.3884 6.97266 23.7536 6.14746 23.0114 5.40527C22.2692 4.66309 21.444 4.02832 20.5358 3.50098C19.6276 2.96387 18.6511 2.54883 17.6061 2.25586C16.5612 1.96289 15.4772 1.81641 14.3542 1.81641C13.2311 1.81641 12.1471 1.96289 11.1022 2.25586C10.0573 2.54883 9.08074 2.96387 8.17254 3.50098C7.26433 4.02832 6.43914 4.66309 5.69695 5.40527C4.95476 6.14746 4.31512 6.97266 3.77801 7.88086C3.25066 8.78906 2.84051 9.76563 2.54754 10.8105C2.25457 11.8555 2.10808 12.9395 2.10808 14.0625C2.10808 15.1855 2.25457 16.2695 2.54754 17.3145C2.84051 18.3594 3.25066 19.3359 3.77801 20.2441C4.31512 21.1523 4.95476 21.9775 5.69695 22.7197C6.43914 23.4619 7.26433 24.1016 8.17254 24.6387C9.08074 25.166 10.0573 25.5762 11.1022 25.8691C12.1471 26.1621 13.2311 26.3086 14.3542 26.3086ZM13.4167 20.625H15.2917V22.5H13.4167V20.625ZM14.3542 6.5625C14.9987 6.5625 15.6042 6.68945 16.1706 6.94336C16.737 7.1875 17.2302 7.52441 17.6501 7.9541C18.0798 8.37402 18.4167 8.86719 18.6608 9.43359C18.9147 10 19.0417 10.6055 19.0417 11.25C19.0417 11.8359 18.9489 12.3486 18.7634 12.7881C18.5778 13.2178 18.3434 13.6084 18.0602 13.96C17.7868 14.3115 17.4889 14.6338 17.1667 14.9268C16.8444 15.21 16.5417 15.498 16.2585 15.791C15.985 16.0742 15.7555 16.3818 15.57 16.7139C15.3845 17.0361 15.2917 17.4023 15.2917 17.8125V18.75H13.4167V17.8125C13.4167 17.2266 13.5095 16.7188 13.695 16.2891C13.8805 15.8496 14.11 15.4541 14.3835 15.1025C14.6667 14.751 14.9694 14.4336 15.2917 14.1504C15.6139 13.8574 15.9118 13.5693 16.1852 13.2861C16.4684 12.9932 16.7028 12.6855 16.8884 12.3633C17.0739 12.041 17.1667 11.6699 17.1667 11.25C17.1667 10.8594 17.0934 10.4932 16.947 10.1514C16.8005 9.80957 16.6003 9.51172 16.3464 9.25781C16.0925 9.00391 15.7946 8.80371 15.4528 8.65723C15.111 8.51074 14.7448 8.4375 14.3542 8.4375C13.9636 8.4375 13.5973 8.51074 13.2555 8.65723C12.9137 8.80371 12.6159 9.00391 12.362 9.25781C12.1081 9.51172 11.9079 9.80957 11.7614 10.1514C11.6149 10.4932 11.5417 10.8594 11.5417 11.25H9.66668C9.66668 10.6055 9.78875 10 10.0329 9.43359C10.277 8.86719 10.6091 8.37402 11.029 7.9541C11.4587 7.52441 11.9567 7.1875 12.5231 6.94336C13.0993 6.68945 13.7096 6.5625 14.3542 6.5625Z" fill="url(#paint0_linear)"/>
<defs>
<linearGradient id="paint0_linear" x1="5" y1="17.6613" x2="26.1834" y2="17.6613" gradientUnits="userSpaceOnUse">
<stop stop-color="#3CA4E6"/>
<stop offset="1" stop-color="#3C71DA"/>
</linearGradient>
</defs>
</svg>
