<svg width="15" height="15" viewBox="0 0 15 15" fill="none" xmlns="http://www.w3.org/2000/svg">
<path d="M13.1247 2.04101C13.2865 2.04101 13.4177 1.90985 13.4177 1.74804V1.23047C13.4177 0.551965 12.8657 0 12.1872 0H2.81244C2.13395 0 1.582 0.551994 1.582 1.23047V3.28867H0.996063C0.769892 3.28867 0.585908 3.10469 0.585908 2.87851C0.585908 2.65233 0.769892 2.46834 0.996063 2.46834C1.15784 2.46834 1.28903 2.33718 1.28903 2.17537C1.28903 2.01356 1.15784 1.88239 0.996063 1.88239C0.446835 1.88242 0 2.32927 0 2.87854C0 3.42781 0.446835 3.87462 0.996063 3.87462H1.582V7.91387H0.996063C0.769892 7.91387 0.585908 7.72988 0.585908 7.50371C0.585908 7.27753 0.769892 7.09354 0.996063 7.09354C1.15784 7.09354 1.28903 6.96238 1.28903 6.80057C1.28903 6.63876 1.15784 6.50759 0.996063 6.50759C0.446835 6.50762 0 6.95447 0 7.50371C0 8.05298 0.446835 8.49979 0.996063 8.49979H1.582V12.539H0.996063C0.769892 12.539 0.585908 12.3551 0.585908 12.1289C0.585908 11.9027 0.769892 11.7187 0.996063 11.7187C1.15784 11.7187 1.28903 11.5875 1.28903 11.4257C1.28903 11.2639 1.15784 11.1328 0.996063 11.1328C0.446835 11.1328 0 11.5796 0 12.1289C0 12.6782 0.446835 13.125 0.996063 13.125H1.582V13.7695C1.582 14.448 2.13398 15 2.81244 15H12.1872C12.8657 15 13.4177 14.448 13.4177 13.7695V9.6007C13.4177 9.43889 13.2865 9.30773 13.1247 9.30773C12.9629 9.30773 12.8317 9.43889 12.8317 9.6007V13.7695C12.8317 14.1249 12.5426 14.414 12.1872 14.414H2.81244C2.45704 14.414 2.16791 14.1249 2.16791 13.7695V13.125H2.87592C3.42518 13.125 3.87199 12.6781 3.87199 12.1289C3.87199 11.5796 3.42515 11.1328 2.87592 11.1328H2.84663C2.68485 11.1328 2.55366 11.264 2.55366 11.4258C2.55366 11.5876 2.68485 11.7187 2.84663 11.7187H2.87592C3.1021 11.7187 3.28608 11.9027 3.28608 12.1289C3.28608 12.3551 3.1021 12.5391 2.87592 12.5391H2.16791V8.49982H2.87592C3.42518 8.49982 3.87199 8.05297 3.87199 7.50374C3.87199 6.95449 3.42515 6.50765 2.87592 6.50765H2.84663C2.68485 6.50765 2.55366 6.63881 2.55366 6.80062C2.55366 6.96243 2.68485 7.0936 2.84663 7.0936H2.87592C3.1021 7.0936 3.28608 7.27759 3.28608 7.50376C3.28608 7.72994 3.1021 7.91393 2.87592 7.91393H2.16791V3.87468H2.87592C3.42518 3.87468 3.87199 3.42784 3.87199 2.8786C3.87199 2.32933 3.42515 1.88251 2.87592 1.88251H2.84663C2.68485 1.88251 2.55366 2.01368 2.55366 2.17549C2.55366 2.3373 2.68485 2.46846 2.84663 2.46846H2.87592C3.1021 2.46846 3.28608 2.65245 3.28608 2.87863C3.28608 3.1048 3.1021 3.28879 2.87592 3.28879H2.16791V1.23047C2.16791 0.875058 2.45704 0.585921 2.81244 0.585921H12.1872C12.5426 0.585921 12.8318 0.875058 12.8318 1.23047V1.74806C12.8318 1.90985 12.9629 2.04101 13.1247 2.04101Z" fill="white" fill-opacity="0.75"/>
<path d="M7.1503 11.1088C7.09584 11.0543 7.02026 11.0229 6.9432 11.0229C6.86583 11.023 6.79057 11.0543 6.73608 11.1088C6.68158 11.1636 6.65024 11.2388 6.65024 11.3159C6.65024 11.3932 6.68155 11.4685 6.73608 11.5233C6.79057 11.5778 6.86615 11.6089 6.9432 11.6089C7.02026 11.6089 7.09584 11.5778 7.1503 11.5233C7.2048 11.4685 7.23617 11.3932 7.23617 11.3159C7.23617 11.2388 7.20482 11.1636 7.1503 11.1088Z" fill="white" fill-opacity="0.75"/>
<path d="M5.82995 11.0231H4.66406C4.50228 11.0231 4.37109 11.1542 4.37109 11.316C4.37109 11.4779 4.50228 11.609 4.66406 11.609H5.82995C5.99173 11.609 6.12292 11.4779 6.12292 11.316C6.12292 11.1542 5.99173 11.0231 5.82995 11.0231Z" fill="white" fill-opacity="0.75"/>
<path d="M7.49984 8.44495H4.66406C4.50228 8.44495 4.37109 8.57611 4.37109 8.73792C4.37109 8.89973 4.50228 9.0309 4.66406 9.0309H7.49984C7.66162 9.0309 7.79281 8.89973 7.79281 8.73792C7.79281 8.57611 7.66159 8.44495 7.49984 8.44495Z" fill="white" fill-opacity="0.75"/>
<path d="M8.61386 5.86683H4.66406C4.50228 5.86683 4.37109 5.99799 4.37109 6.1598C4.37109 6.32161 4.50228 6.45278 4.66406 6.45278H8.61386C8.77566 6.45278 8.90683 6.32161 8.90683 6.1598C8.90683 5.99799 8.77563 5.86683 8.61386 5.86683Z" fill="white" fill-opacity="0.75"/>
<path d="M9.63995 3.28867H4.66406C4.50228 3.28867 4.37109 3.41984 4.37109 3.58165C4.37109 3.74346 4.50228 3.87462 4.66406 3.87462H9.63995C9.80173 3.87462 9.93292 3.74346 9.93292 3.58165C9.93292 3.41984 9.80173 3.28867 9.63995 3.28867Z" fill="white" fill-opacity="0.75"/>
<path d="M14.9645 4.24064C14.8934 3.97523 14.7232 3.75342 14.4853 3.61604L13.381 2.97844C12.8898 2.69487 12.2595 2.8638 11.9759 3.35497L8.00554 10.2321C7.97982 10.2766 7.96628 10.3272 7.96628 10.3786V13.125C7.96628 13.2297 8.02212 13.3264 8.11276 13.3787C8.15809 13.4049 8.20865 13.418 8.25925 13.418C8.30984 13.418 8.36041 13.4049 8.40573 13.3787L10.7841 12.0055C10.8287 11.9798 10.8656 11.9428 10.8914 11.8983L14.8617 5.02118C14.9991 4.78323 15.0356 4.50604 14.9645 4.24064ZM8.55222 12.6176V11.974L9.1117 12.2946L8.55222 12.6176ZM9.69875 11.9556L8.55222 11.2987V10.886L10.0517 11.7517L9.69875 11.9556ZM10.5304 11.3516L8.65941 10.2714L11.7413 4.93326L13.6123 6.01349L10.5304 11.3516ZM14.3543 4.72818L13.9052 5.50603L12.0342 4.4258L12.4833 3.64798C12.6054 3.4366 12.8767 3.36394 13.0881 3.48593L14.1923 4.12351C14.2947 4.18263 14.3679 4.27808 14.3985 4.39231C14.4292 4.50654 14.4134 4.62578 14.3543 4.72818Z" fill="white" fill-opacity="0.75"/>
</svg>
