<svg width="31" height="30" viewBox="0 0 31 30" fill="none" xmlns="http://www.w3.org/2000/svg">
<path d="M24.6667 13.125C25.4382 13.125 26.1657 13.2764 26.8493 13.5791C27.5329 13.8721 28.1286 14.2725 28.6364 14.7803C29.1442 15.2881 29.5446 15.8838 29.8376 16.5674C30.1403 17.251 30.2917 17.9785 30.2917 18.75C30.2917 19.5215 30.1403 20.249 29.8376 20.9326C29.5446 21.6162 29.1442 22.2119 28.6364 22.7197C28.1286 23.2275 27.5329 23.6328 26.8493 23.9355C26.1657 24.2285 25.4382 24.375 24.6667 24.375C24.0807 24.375 23.5095 24.2871 22.9528 24.1113C22.3962 23.9355 21.8835 23.6768 21.4147 23.335C21.2585 23.4912 20.9948 23.7646 20.6237 24.1553C20.2624 24.5361 19.8425 24.9756 19.3639 25.4736C18.8854 25.9619 18.3776 26.4746 17.8405 27.0117C17.3132 27.5391 16.8151 28.0273 16.3464 28.4766C15.8776 28.916 15.4626 29.2822 15.1012 29.5752C14.7399 29.8584 14.4909 30 14.3542 30C14.1003 30 13.8805 29.9072 13.695 29.7217C13.5095 29.5361 13.4167 29.3164 13.4167 29.0625C13.4167 28.9258 13.5583 28.6768 13.8415 28.3154C14.1345 27.9541 14.5007 27.5391 14.9401 27.0703C15.3893 26.6016 15.8776 26.1035 16.405 25.5762C16.9421 25.0391 17.4548 24.5312 17.943 24.0527C18.4411 23.5742 18.8805 23.1543 19.2614 22.793C19.652 22.4219 19.9255 22.1582 20.0817 22.002C19.7399 21.5332 19.4811 21.0205 19.3054 20.4639C19.1296 19.9072 19.0417 19.3359 19.0417 18.75C19.0417 17.9785 19.1882 17.251 19.4811 16.5674C19.7839 15.8838 20.1891 15.2881 20.697 14.7803C21.2048 14.2725 21.8005 13.8721 22.4841 13.5791C23.1677 13.2764 23.8952 13.125 24.6667 13.125ZM24.6667 22.5C25.1745 22.5 25.6579 22.4023 26.1169 22.207C26.5759 22.002 26.9714 21.7334 27.3034 21.4014C27.6452 21.0596 27.9137 20.6641 28.1091 20.2148C28.3141 19.7559 28.4167 19.2676 28.4167 18.75C28.4167 18.2422 28.3141 17.7588 28.1091 17.2998C27.9137 16.8408 27.6452 16.4453 27.3034 16.1133C26.9714 15.7715 26.5759 15.5029 26.1169 15.3076C25.6579 15.1025 25.1745 15 24.6667 15C24.1491 15 23.6608 15.1025 23.2018 15.3076C22.7526 15.5029 22.3571 15.7715 22.0153 16.1133C21.6833 16.4453 21.4147 16.8408 21.2096 17.2998C21.0143 17.7588 20.9167 18.2422 20.9167 18.75C20.9167 19.2676 21.0143 19.7559 21.2096 20.2148C21.4147 20.6641 21.6833 21.0596 22.0153 21.4014C22.3571 21.7334 22.7526 22.002 23.2018 22.207C23.6608 22.4023 24.1491 22.5 24.6667 22.5ZM4.04168 20.625V16.875H0.291678V0H22.7917V3.75H26.5417V11.5137C26.2292 11.4355 25.9167 11.3721 25.6042 11.3232C25.2917 11.2744 24.9792 11.25 24.6667 11.25V5.625H5.91668V18.75H17.1667C17.1667 19.0625 17.1911 19.375 17.2399 19.6875C17.2887 20 17.3522 20.3125 17.4304 20.625H4.04168ZM4.04168 15V3.75H20.9167V1.875H2.16668V15H4.04168Z" fill="url(#paint0_linear)"/>
<defs>
<linearGradient id="paint0_linear" x1="5" y1="17.6613" x2="26.1834" y2="17.6613" gradientUnits="userSpaceOnUse">
<stop stop-color="#3CA4E6"/>
<stop offset="1" stop-color="#3C71DA"/>
</linearGradient>
</defs>
</svg>
